# xmcd
#
# Track frame offsets: 
#        150
#        18851
#        43294
#        63136
#        83536
#        99997
#        117591
#        138057
#        161478
#
# Disc length: 2456 seconds
#
# Revision: 1
# Processed by: cddbd v1.5.2PL0 Copyright (c) Steve Scherf et al.
# Submitted via: ExactAudioCopy v1.3
#
DISCID=65099609
DTITLE=Gill Landry - Love Rides a Dark Horse
DYEAR=2017
DGENRE=Alt-Country
TTITLE0=Denver Girls
TTITLE1=Bird in a Cage
TTITLE2=Berlin
TTITLE3=Broken Hearts and Things We'll Never Know
TTITLE4=The One Who Won the War
TTITLE5=The Only Game in Town
TTITLE6=Scripted Love
TTITLE7=The Women You Are
TTITLE8=The Real Deal Died
EXTD=
EXTT0=
EXTT1=
EXTT2=
EXTT3=
EXTT4=
EXTT5=
EXTT6=
EXTT7=
EXTT8=
PLAYORDER=
